<?xml version="1.0" encoding="UTF-8" standalone="no"?>
<svg width="645px" height="136px" viewBox="0 0 645 136" version="1.1" xmlns="http://www.w3.org/2000/svg" xmlns:xlink="http://www.w3.org/1999/xlink" xmlns:sketch="http://www.bohemiancoding.com/sketch/ns">
    <!-- Generator: Sketch 3.3.3 (12072) - http://www.bohemiancoding.com/sketch -->
    <title>name</title>
    <desc>Created with Sketch.</desc>
    <defs>
        <filter x="-50%" y="-50%" width="200%" height="200%" filterUnits="objectBoundingBox" id="filter-1">
            <feOffset dx="0" dy="0" in="SourceAlpha" result="shadowOffsetOuter1"></feOffset>
            <feGaussianBlur stdDeviation="9" in="shadowOffsetOuter1" result="shadowBlurOuter1"></feGaussianBlur>
            <feColorMatrix values="0 0 0 0 0.314369351   0 0 0 0 0.8883757   0 0 0 0 0.759899616  0 0 0 0.7 0" in="shadowBlurOuter1" type="matrix" result="shadowMatrixOuter1"></feColorMatrix>
            <feMerge>
                <feMergeNode in="shadowMatrixOuter1"></feMergeNode>
                <feMergeNode in="SourceGraphic"></feMergeNode>
            </feMerge>
        </filter>
    </defs>
    <g id="Page-1" stroke="none" stroke-width="1" fill="none" fill-rule="evenodd" sketch:type="MSPage">
        <g id="Artboard-4" sketch:type="MSArtboardGroup" transform="translate(-215.000000, -144.000000)" filter="url(#filter-1)" fill="#E5FFFA">
            <path d="M273.336,163.52 L273.336,234.512 C273.336,243.920047 271.032023,250.831978 266.424,255.248 C262.871982,258.800018 256.440047,260.863997 247.128,261.44 C243.575982,261.728001 238.920029,261.872 233.16,261.872 L233.16,234.368 C234.408006,234.368 235.319997,234.344 235.896,234.296 C236.472003,234.248 237.071997,233.960003 237.696,233.432 C238.320003,232.903997 238.727999,232.304003 238.92,231.632 C239.112001,230.959997 239.303999,229.760009 239.496,228.032 C239.784001,225.343987 239.928,220.544035 239.928,213.632 L239.928,163.52 L273.336,163.52 Z M315.6,229.4 C317.184008,233.000018 320.495975,234.8 325.536,234.8 C330.576025,234.8 333.863992,233.024018 335.4,229.472 C336.936008,225.919982 337.704,219.992042 337.704,211.688 C337.704,203.383958 336.960007,197.480018 335.472,193.976 C333.983993,190.471982 330.696025,188.72 325.608,188.72 C320.519975,188.72 317.184008,190.519982 315.6,194.12 C314.015992,197.720018 313.224,203.599959 313.224,211.76 C313.224,219.920041 314.015992,225.799982 315.6,229.4 L315.6,229.4 Z M360.456,249.992 C353.159964,257.91204 341.52008,261.872 325.536,261.872 C309.55192,261.872 297.888037,257.88804 290.544,249.92 C283.199963,241.95196 279.528,229.208088 279.528,211.688 C279.528,194.167912 283.175964,181.44804 290.472,173.528 C297.768036,165.60796 309.43192,161.648 325.464,161.648 C341.49608,161.648 353.159964,165.60796 360.456,173.528 C367.752036,181.44804 371.4,194.191912 371.4,211.76 C371.4,229.328088 367.752036,242.07196 360.456,249.992 L360.456,249.992 Z M430.296,260 L430.296,226.304 L411.432,226.304 L411.432,260 L378.024,260 L378.024,163.52 L411.432,163.52 L411.432,199.088 L430.296,199.088 L430.296,163.52 L463.704,163.52 L463.704,260 L430.296,260 Z M472.344,260 L472.344,163.52 L505.176,163.52 L527.352,200.096 L529.368,200.096 L529.368,163.52 L562.776,163.52 L562.776,260 L529.8,260 L507.912,220.688 L505.752,220.688 L505.752,260 L472.344,260 Z M644.856,191.312 C631.319932,189.871993 621.480031,189.152 615.336,189.152 C609.191969,189.152 605.616005,189.319998 604.608,189.656 C603.599995,189.992002 603.096,190.687995 603.096,191.744 C603.096,192.800005 603.671994,193.615997 604.824,194.192 C605.976006,194.768003 609.59997,195.727993 615.696,197.072 C621.79203,198.416007 626.783981,199.735994 630.672,201.032 C634.560019,202.328006 638.063984,204.151988 641.184,206.504 C644.304016,208.856012 646.367995,211.735983 647.376,215.144 C648.384005,218.552017 648.888,223.135971 648.888,228.896 C648.888,240.80006 645.720032,249.295975 639.384,254.384 C633.047968,259.472025 623.496064,262.016 610.728,262.016 C604.583969,262.016 598.128034,261.584004 591.36,260.72 C584.591966,259.855996 579.384018,258.992004 575.736,258.128 L570.12,256.832 L571.56,231.344 C586.248073,233.456011 598.295953,234.512 607.704,234.512 C612.696025,234.512 615.192,233.408011 615.192,231.2 C615.192,230.239995 614.616006,229.544002 613.464,229.112 C612.311994,228.679998 609.192025,228.080004 604.104,227.312 C590.663933,225.199989 581.520024,221.912022 576.672,217.448 C571.823976,212.983978 569.4,205.664051 569.4,195.488 C569.4,182.527935 572.519969,173.648024 578.76,168.848 C585.000031,164.047976 594.599935,161.648 607.56,161.648 C616.680046,161.648 627.383939,162.559991 639.672,164.384 L645.72,165.392 L644.856,191.312 Z M688.704,229.4 C690.288008,233.000018 693.599975,234.8 698.64,234.8 C703.680025,234.8 706.967992,233.024018 708.504,229.472 C710.040008,225.919982 710.808,219.992042 710.808,211.688 C710.808,203.383958 710.064007,197.480018 708.576,193.976 C707.087993,190.471982 703.800025,188.72 698.712,188.72 C693.623975,188.72 690.288008,190.519982 688.704,194.12 C687.119992,197.720018 686.328,203.599959 686.328,211.76 C686.328,219.920041 687.119992,225.799982 688.704,229.4 L688.704,229.4 Z M733.56,249.992 C726.263964,257.91204 714.62408,261.872 698.64,261.872 C682.65592,261.872 670.992037,257.88804 663.648,249.92 C656.303963,241.95196 652.632,229.208088 652.632,211.688 C652.632,194.167912 656.279964,181.44804 663.576,173.528 C670.872036,165.60796 682.53592,161.648 698.568,161.648 C714.60008,161.648 726.263964,165.60796 733.56,173.528 C740.856036,181.44804 744.504,194.191912 744.504,211.76 C744.504,229.328088 740.856036,242.07196 733.56,249.992 L733.56,249.992 Z M751.128,260 L751.128,163.52 L783.96,163.52 L806.136,200.096 L808.152,200.096 L808.152,163.52 L841.56,163.52 L841.56,260 L808.584,260 L786.696,220.688 L784.536,220.688 L784.536,260 L751.128,260 Z" id="name" sketch:type="MSShapeGroup"></path>
        </g>
    </g>
</svg>